<svg version="1.1" viewBox="0.0 0.0 960.0 219.3753280839895" fill="none" stroke="none" stroke-linecap="square" stroke-miterlimit="10" xmlns:xlink="http://www.w3.org/1999/xlink" xmlns="http://www.w3.org/2000/svg"><clipPath id="p.0"><path d="m0 0l960.0 0l0 219.37534l-960.0 0l0 -219.37534z" clip-rule="nonzero"/></clipPath><g clip-path="url(#p.0)"><path fill="#000000" fill-opacity="0.0" d="m0 0l960.0 0l0 219.37534l-960.0 0z" fill-rule="evenodd"/><path fill="#000000" fill-opacity="0.0" d="m0 0.03141706l960.0 -0.031496063l0 219.33858l-960.0 0.03149414z" fill-rule="evenodd"/><path fill="#ffffff" d="m96.15408 111.763245q0 6.578125 -3.4375 14.500114q-3.4375 7.9063644 -9.484375 15.234688q-6.046875 7.3126984 -14.703125 10.000488q-3.28125 0.8907318 -7.546875 0.89086914q-4.25 1.373291E-4 -9.328125 -2.6871948l-14.1875 35.391083q-2.234375 4.7813263 -4.171875 6.2657623q-1.953125 1.5000763 -3.734375 1.5001221q-1.796875 6.1035156E-5 -2.171875 7.6293945E-5q-0.375 1.5258789E-5 -2.6875 -0.45303345q-2.3125 -0.4374237 -3.515625 -0.2967682q3.28125 -3.1407318 16.65625 -29.79741q13.359375 -26.641068 15.15625 -35.906754q-1.640625 2.390686 -3.140625 2.5469818q-0.890625 3.0517578E-5 0 -1.71875q0.90625 -1.7187805 2.984375 -6.656349q2.6875 -6.4219666 2.6875 -11.859467q0 -5.453125 -2.078125 -6.3593063q8.953125 -1.4846649 10.4375 -1.4065933q1.5 0.062454224 1.875 1.265564q0.375 1.1874847 0.375 2.6874847q0 9.109375 -4.1875 20.312645l2.984375 -4.781349q5.375 -8.67205 7.84375 -11.203384q2.46875 -2.531334 5.296875 -5.2189255q4.34375 -4.187645 8.375 -4.1877747q1.1875 -3.8146973E-5 2.234375 0.29680634q7.46875 1.9372482 7.46875 11.640373zm-7.171875 -1.4841385q0 -2.390625 -0.96875 -4.4062195q-0.96875 -2.0155869 -3.0625 -2.0155182q-5.21875 1.6784668E-4 -12.171875 9.703522q-6.9375 9.703354 -19.9375 33.9069q1.953125 1.937439 5.375 1.9373322q3.4375 -1.2207031E-4 9.71875 -5.2346954q10.0 -8.359711 16.71875 -20.75055q4.328125 -8.062645 4.328125 -13.14077zm57.93991 1.6387253q-2.6875 2.6875916 -7.625 12.172127q-4.921875 9.484535 -5.890625 14.187691q-0.96875 4.7031555 -0.96875 7.6250305q0 2.90625 2.234375 2.9061737q2.84375 -9.1552734E-5 7.03125 -5.234604q6.109375 -7.6095734 12.09375 -19.859764q0.59375 -1.3437729 1.34375 -1.5000458q1.1875 -0.43753815 1.1875 0.90621185q0 0.75 -0.453125 1.7968903q-13.734375 27.766068 -23.140625 27.766388q-4.328125 1.373291E-4 -7.015625 -4.171646q-1.34375 -2.2499542 -1.34375 -5.984329q0 -3.734375 1.5 -9.109436q-11.953125 19.266022 -20.609375 19.266312q-2.390625 7.6293945E-5 -4.328125 -1.4842377q-4.484375 -3.1404724 -4.484375 -10.765472q0 -14.625008 12.6875 -29.703545q7.171875 -8.3752365 17.625 -10.90683q2.828125 -0.75009155 5.375 -0.7501755q6.875 -2.2888184E-4 11.640625 4.7808685q1.5 1.6405716 0.890625 3.1405945q-0.59375 1.4843903 -2.53125 1.1875839q-1.640625 -5.3749466 -7.15625 -5.374771q-6.421875 2.1362305E-4 -15.84375 10.156776q-5.375 5.9689255 -10.0 14.031578q-5.828125 9.718941 -5.828125 15.547066q0 5.8125 3.734375 5.812378q8.96875 -2.89917E-4 23.453125 -27.485146q2.828125 -5.5157166 4.765625 -7.53141q1.953125 -2.015686 4.9375 -2.0157852q0.59375 -2.2888184E-5 3.0625 0.45302582q2.46875 0.43741608 3.65625 0.14050293zm-13.735123 87.65671q-6.5625 2.1362305E-4 -10.140625 -2.7653046q-3.59375 -2.765503 -3.59375 -6.656128q0 -3.875 2.234375 -8.796951q3.890625 -7.609497 14.046875 -12.250458q7.609375 -3.5783691 20.15625 -6.641281q12.546875 -3.062912 16.125 -4.109909q5.375 -9.406418 12.84375 -33.59417q-8.65625 15.234657 -14.484375 21.359856q-5.828125 6.109558 -11.796875 6.1097565q-8.0625 2.593994E-4 -9.40625 -6.718445q-0.59375 -1.0468597 -0.296875 -3.1249847q0.296875 -2.0937653 0.359375 -2.9843903q0.078125 -0.90625 0.96875 -2.9219055q0.90625 -2.0156555 1.203125 -2.9062958q1.640625 -3.4375458 2.84375 -5.3750916q-2.390625 7.6293945E-5 -1.34375 -2.3905792l2.6875 -5.234459q5.078125 -9.703293 8.359375 -16.42215q1.5 -3.1406784 5.828125 -3.1408157l9.109375 -2.975464E-4q-0.296875 0.31250763 -1.5 1.2031708q-2.6875 1.7969666 -4.03125 4.1720047q-5.375 9.265808 -13.4375 26.437943q-3.28125 7.015732 -3.28125 10.312607q0 3.28125 1.109375 4.6249695q1.125 1.3437042 3.0625 1.3436432q2.84375 -9.1552734E-5 7.921875 -5.9846344q10.59375 -12.390976 23.4375 -38.969513q1.640625 -3.140686 5.828125 -3.1408234l8.0625 -2.593994E-4q-3.875 2.687622 -6.125 6.7970734q-2.234375 4.1094513 -4.859375 11.12516q-2.609375 7.015709 -6.5625 18.672096q-3.953125 11.640747 -6.046875 17.468948q14.03125 -4.187973 21.5 -14.781967q3.296875 -4.625107 9.40625 -16.42218q1.046875 -2.0937805 1.859375 -1.640686q0.828125 0.4374771 0.828125 1.1874771q0 0.75 -2.46875 5.750084q-2.453125 5.0000763 -5.0 9.265778q-2.53125 4.2500916 -6.5625 8.734604q-4.03125 4.468872 -8.96875 7.078415q-4.921875 2.6251526 -13.125 5.6098022q-11.5 20.906631 -23.15625 30.766388q-10.890625 8.953476 -23.59375 8.953903zm-8.65625 -14.780975q-1.640625 3.281311 -1.640625 6.046936q0 2.765625 2.09375 4.2499237q2.078125 1.499939 5.21875 1.4998322q8.65625 -2.89917E-4 18.515625 -8.891235q9.859375 -8.87532 17.328125 -19.031815l3.28125 -5.531357q-24.640625 6.4226837 -31.0625 9.266647q-9.546875 4.17218 -13.734375 12.3910675zm116.01947 -84.67568q10.90625 -3.5095215E-4 10.90625 13.734024q0 6.28125 -3.28125 13.437607q-4.1875 9.71888 -12.546875 17.625404q1.9375 3.734314 7.015625 3.734146q4.03125 -1.2207031E-4 7.609375 -4.031494q4.484375 -4.6251526 6.4218903 -8.125214q1.953125 -3.515686 2.84375 -5.1563416q0.890625 -1.6562805 2.3125 -4.7188263q1.421875 -3.0625458 1.71875 -3.7344284q0.296875 -0.67189026 1.046875 -0.67191315q1.484375 -0.14067078 1.484375 1.0468292q0 0.453125 -0.296875 1.0468826l-0.890625 2.0937805q-0.890625 2.093773 -1.34375 3.0000381q-0.453125 0.89064026 -1.578125 3.203186q-1.109375 2.3125305 -1.9375 3.656311q-0.8125 1.3437805 -2.234375 3.5938263q-1.421875 2.2344208 -2.5468903 3.5782013q-1.109375 1.3437958 -2.75 2.9844666q-1.640625 1.640686 -3.140625 2.5313568q-3.734375 2.250122 -7.015625 2.250229q-6.125 1.9836426E-4 -9.5625 -3.8903198q-6.859375 5.078354 -12.6875 5.0785522q-10.90625 3.5095215E-4 -10.90625 -13.734024q0 -6.28125 3.28125 -13.437607q4.484375 -10.45327 12.625 -17.766037q8.140625 -7.328392 15.453125 -7.328636zm1.640625 4.6249466q-4.03125 1.373291E-4 -9.5625 5.3753204q-5.515625 5.3751755 -9.84375 14.640945q-5.234375 10.750168 -5.234375 17.625168q0 6.859375 5.234375 6.859207q3.734375 -1.2207031E-4 8.359375 -4.0315247q-2.390625 -3.4374237 -2.390625 -7.3124237q0.296875 -6.4218903 5.234375 -6.422043q1.9375 -6.1035156E-5 3.203125 1.3436432q1.265625 1.3437042 1.265625 2.4687042q0 1.109375 -0.296875 2.3125153q2.546875 -3.7344666 5.828125 -10.609566q3.734375 -7.609497 3.734375 -14.921997q0 -7.328125 -5.53125 -7.3279495zm15.978104 38.983856q0 -6.421875 5.53125 -15.531433q-2.390625 7.6293945E-5 -1.34375 -2.3905792l2.6875 -5.2344666q5.078125 -9.703293 8.359375 -16.42215q1.5 -3.1406708 5.828125 -3.1408157l9.109375 -2.975464E-4q-5.375 3.8908005 -10.828125 15.015984q-5.453125 11.125175 -8.4375 17.469017q-2.984375 6.343857 -2.984375 9.640732q0 3.28125 1.109375 4.624954q1.125 1.3437195 3.0625 1.3436584q2.84375 -9.1552734E-5 7.921875 -5.9846344q7.90625 -9.250259 22.25 -38.969482q1.640625 -3.1406784 5.828125 -3.1408157l8.0625 -2.670288E-4q-3.296875 2.5469818 -5.15625 5.234543q-1.859375 2.687561 -5.15625 9.562675q-8.953125 17.906548 -10.0 23.734703q-0.453125 2.0937653 -0.453125 3.8906403q0 4.765625 3.296875 5.078018q8.0625 -2.746582E-4 19.859375 -24.953781q0.890625 -2.0781555 1.78125 -1.625061q0.90625 0.43746948 0.90625 1.1874695q0 0.75 -1.34375 3.4375458q-1.34375 2.6875458 -2.625 5.2344666q-1.265625 2.5312805 -3.875 6.937622q-2.609375 4.3907166 -4.859375 6.937668q-5.8125 6.562683 -11.421875 6.562866q-5.59375 1.8310547E-4 -7.6875 -4.9216156q-0.890625 -2.2343445 -0.890625 -5.6718445q0 -3.4375 1.484375 -8.515686q-10.890625 19.109741 -20.15625 19.110046q-8.0625 2.593994E-4 -9.40625 -6.718445q-0.453125 -0.73435974 -0.453125 -1.7812347zm54.81015 -3.2986755q0 -12.390625 11.9375 -41.50039l-7.765625 2.5177002E-4q-0.734375 2.2888184E-5 -0.96875 -0.8280945q-0.21875 -0.8281174 0.15625 -1.640625q0.375 -0.82814026 1.125 -0.82816315l8.953125 -2.975464E-4q5.375 -11.79705 10.0 -19.703453q4.640625 -7.9220276 8.515625 -10.67215q3.890625 -2.7657547 5.59375 -2.765812q1.71875 -5.722046E-5 2.46875 0.2967949q3.4375 1.6405106 3.4375 6.7967606q0 5.140625 -3.4375 12.468864q-3.4375 7.3126144 -6.71875 13.578346l7.171875 -2.3651123E-4q0.75 -2.2888184E-5 0.96875 0.8280945q0.21875 0.8124924 -0.15625 1.640625q-0.375 0.82814026 -1.109375 0.82816315l-8.671875 2.89917E-4q-8.203125 13.875267 -19.859375 24.625648l-3.4375 15.234482q-0.4375 1.9531403 -0.4375 3.8125153q0 1.859375 1.046875 3.8124695q1.046875 1.9374695 3.28125 1.9373932q2.53125 -7.6293945E-5 5.671875 -1.7970581q7.171875 -5.375244 15.828125 -22.547394q0.59375 -1.3437729 1.421875 -1.6406784q0.828125 -0.2968979 0.96875 0.37496948q0.15625 0.671875 -0.453125 2.1718903q-4.921875 10.297035 -7.765625 14.625252q-8.0625 13.000275 -17.171875 13.000565q-4.625 1.5258789E-4 -7.609375 -3.4372406q-2.984375 -3.4374084 -2.984375 -8.671783zm30.015625 -44.79786q9.859375 -17.609695 9.859375 -24.484695q0 -2.984375 -1.046875 -2.9843445q-1.640625 5.340576E-5 -5.015625 4.781418q-3.359375 4.765732 -11.265625 22.687866l7.46875 -2.4414062E-4zm-1.9375 3.296936l-7.03125 2.3651123E-4q-1.78125 4.1719284 -8.0625 19.859634q8.0625 -8.375259 15.09375 -19.85987zm18.365662 50.608772q1.9375 0.31243896 2.6875 0.31240845q5.96875 -1.8310547E-4 11.796875 -7.0316315q3.140625 -3.8751068 11.203125 -19.562866q0.296875 -0.7343826 1.046875 -0.73441315q1.34375 -0.15628815 1.34375 1.0312119q0 0.3125 -0.671875 1.7343903q-0.671875 1.4062729 -1.28125 2.8281708q-0.59375 1.4218903 -1.9375 4.109436q-1.34375 2.6875458 -2.3125 4.3282013q-0.96875 1.6406555 -2.46875 4.0313263q-1.484375 2.390686 -2.984375 3.7344818l-3.125 3.2813568q-2.546875 2.5469513 -5.984375 3.593933q-5.515625 1.7814331 -10.75 0.2972412q-3.4375 1.4844818 -6.125 1.4845734q-10.59375 3.3569336E-4 -12.828125 -8.358963q-0.453125 -1.9374847 -0.453125 -4.7031097q0 -2.765625 1.859375 -5.296936q1.875 -2.546936 3.96875 -2.687622q7.609375 -14.484627 12.984375 -26.141052q5.96875 -12.687698 13.890625 -12.687958q2.09375 -6.866455E-5 4.109375 0.9686127q2.015625 0.96868896 1.484375 2.1718292q-0.515625 1.1875153 -2.15625 0.43756866q-1.640625 -0.7499466 -2.84375 -0.74990845q-1.1875 3.8146973E-5 -2.09375 0.45319366q-5.078125 2.3907928 -5.078125 10.312668q0 4.171875 1.1875 6.859337q1.203125 2.6874619 2.703125 5.8280334q3.4375 7.765518 3.4375 12.687386q0 4.9375 -3.140625 9.718857q-3.140625 4.765732 -7.46875 7.750244zm-5.078125 -1.0310822q6.578125 -5.0783386 6.578125 -16.437714q0 -4.625 -1.046875 -12.6874695q-1.046875 -8.062462 -1.046875 -10.890587q0 -2.84375 0.140625 -3.8906326q-11.34375 22.687874 -14.03125 27.625458q3.140625 -9.1552734E-5 3.140625 4.4842834q0 8.796875 6.265625 11.796661zm-11.203125 -4.046509q0 0.90625 0.15625 1.953125q1.1875 4.031204 5.53125 4.031067q1.78125 -6.1035156E-5 2.984375 -0.59384155q-5.53125 -3.4373322 -5.984375 -11.202942q-2.6875 2.6875916 -2.6875 5.8125916zm58.228027 8.216843q-2.078125 1.796936 -4.625 1.7970276q-2.53125 7.6293945E-5 -3.875 -1.5780029q-1.34375 -1.5624542 -1.34375 -2.7499542q0 -4.03125 2.390625 -5.9688263q2.390625 -1.9532013 4.921875 -1.9532928q2.546875 -7.6293945E-5 3.890625 1.5780029q1.34375 1.5624542 1.34375 2.7655792q0 1.1875 -0.3125 2.7500153q-0.296875 1.5625 -2.390625 3.3594513zm149.2009 -113.78615q0 12.984375 -8.4375 27.172153q-8.4375 14.187775 -23.296875 24.719513q-14.859375 10.531738 -30.6875 13.219757q-9.109375 18.359673 -13.140625 25.67231l-3.140625 5.0782166q29.5625 7.3271637 48.984375 22.248398q9.859375 7.6246796 13.28125 18.671432q1.796875 5.671829 1.796875 9.703079q0 4.03125 -1.578125 6.796921q-1.5625 2.7656708 -3.65625 3.812622q-2.078125 1.046936 -2.984375 1.0469666q-0.890625 3.0517578E-5 -0.890625 -0.7499695q0 -0.75 1.71875 -4.406296q1.71875 -3.656311 1.71875 -8.593811q0 -4.921875 -2.09375 -10.906189q-2.09375 -5.9686737 -7.765625 -10.968491q-5.671875 -4.999817 -15.75 -9.405731q-10.078125 -4.4059143 -17.46875 -6.2650604q-7.390625 -1.8747559 -19.796875 -4.264969q-12.6875 17.781662 -26.421875 24.34462q-8.21875 4.0315247 -14.5625 4.031723q-6.34375 2.1362305E-4 -11.28125 -2.5308838q-8.5 -4.18721 -8.5 -12.702835q0 -8.5 11.1875 -14.922241q12.703125 -7.4691772 34.359375 -7.469879q7.765625 -2.593994E-4 14.03125 1.1870422q6.71875 -10.453354 15.671875 -28.813019q-0.890625 3.0517578E-5 -1.640625 5.340576E-5q-9.40625 3.0517578E-4 -17.46875 -3.1400528q-8.0625 -3.140358 -12.84375 -8.515205q-6.265625 -7.015419 -6.265625 -15.827919q0 -4.625 2.3125 -10.000076q2.3125 -5.3750763 10.296875 -10.890961q8.0 -5.531513 20.234375 -8.375664q1.953125 -0.45318985 3.296875 -0.45323563q1.34375 -4.196167E-5 1.640625 0.7499466q0.296875 0.7499924 -1.203125 1.343792q-1.484375 0.5937958 -3.4375 0.9063606q-6.421875 0.7345848 -11.9375 4.328518q-9.5625 6.125313 -13.296875 18.812935q-0.890625 2.9844055 -0.890625 5.7500305q0 2.765625 1.046875 6.656212q1.046875 3.8749695 4.46875 7.98423q3.4375 4.0936356 9.328125 5.749695q5.90625 1.6404343 10.3125 1.6402893q4.40625 -1.449585E-4 8.140625 -0.45339203l12.703125 -31.953545q13.140625 -33.75043 31.359375 -41.516655q4.765625 -1.9376564 9.3125 -1.9378052q4.5625 -1.5068054E-4 8.671875 2.9059658q4.109375 2.9061146 4.40625 7.093605q0.15625 1.7968712 0.15625 3.4374962zm-6.28125 0.140831q0 -5.671875 -5.21875 -5.6717033q-7.625 2.4795532E-4 -18.515625 13.297482q-8.515625 10.594028 -16.359375 25.609913q-7.84375 15.000252 -13.953125 27.687958q20.75 -4.625679 37.390625 -22.766853q16.65625 -18.14117 16.65625 -38.156796zm-82.71875 101.54959q-7.328125 -1.6403961 -15.09375 -1.6401367q-7.765625 2.593994E-4 -15.96875 2.2348938q-17.171875 4.4849396 -20.15625 12.703796q-0.609375 1.4843903 -0.609375 2.8281403q0 3.890625 4.25 6.3436127q4.265625 2.4686127 9.34375 2.4684448q7.015625 -2.2888184E-4 15.234375 -3.8755035q12.390625 -5.984787 23.0 -21.063248zm219.3529 -97.96033l-6.265625 1.3439522q-10.15625 18.812836 -18.375 48.07873q-2.828125 10.156342 -8.65625 22.625282q-5.828125 12.468941 -13.890625 22.922325q-29.71875 38.0791 -76.0 38.080627q-21.5 7.019043E-4 -34.203125 -9.264511q-8.65625 -6.421585 -11.5 -16.718369q-1.046875 -3.7343445 -1.046875 -9.5468445q0 -5.828125 3.0625 -13.812599q3.0625 -8.000099 9.921875 -14.18782q6.875 -6.203354 10.921875 -6.5003586q1.484375 -5.340576E-5 1.78125 0.43743896q0.453125 0.60935974 -1.640625 1.6406784q-4.625 1.9532776 -10.296875 8.812836q-8.8125 10.453415 -8.8125 23.594048q0 10.015625 6.421875 17.171661q8.0625 8.968491 22.84375 12.249252q6.5625 1.4997864 10.0 1.4996643q3.4375 -1.0681152E-4 7.09375 -0.07835388q3.65625 -0.07824707 9.640625 -1.5784454q12.390625 -3.1253967 23.734375 -10.157028q11.359375 -7.015991 19.421875 -15.141266q8.0625 -8.140884 14.921875 -18.00048q11.65625 -16.875381 17.625 -33.15683q10.453125 -27.625343 22.40625 -48.23511q-23.75 4.938278 -37.78125 10.90749q-14.34375 6.266094 -22.25 14.031982q-9.859375 10.015945 -12.703125 22.562912q-0.890625 3.5781555 -0.890625 6.5625305q0 6.265625 3.4375 10.156136q3.4375 3.8748932 7.390625 3.8747635q3.953125 -1.296997E-4 8.5 -1.7815323q4.5625 -1.7970276 8.0 -5.9846344q4.78125 -6.109535 4.78125 -14.484535q0 -4.171875 -1.203125 -5.218712q-0.296875 -0.45310974 0.296875 -1.3437576q1.5 -2.2344208 2.84375 -9.1552734E-5q1.9375 3.7343063 1.9375 8.140556q0 4.40625 -2.828125 9.625099q-5.078125 9.56266 -14.640625 13.141106q-4.78125 1.7970276 -10.234375 1.7972107q-5.4375 1.7547607E-4 -11.71875 -4.9214935q-6.265625 -4.937294 -6.265625 -13.749794q0 -2.6875 0.59375 -5.812523q8.515625 -38.390903 85.125 -51.37779q1.34375 -2.8437958 4.84375 -7.015785q3.515625 -4.1876163 5.96875 -5.0001965q2.46875 -0.8282051 4.109375 -0.8282585q4.9375 -1.6212463E-4 5.078125 4.187334q0 4.46875 -3.578125 6.8594894q-3.28125 2.0938606 -7.921875 3.5940132zm-3.734375 -2.390503q10.15625 -2.0940857 9.71875 -5.6721954q-0.3125 -1.7968636 -2.03125 -1.7968063q-1.703125 5.340576E-5 -7.6875 7.469002zm54.656128 126.46695q-1.34375 4.5776367E-5 -2.6875 -0.29678345q-7.171875 -1.3435059 -7.171875 -12.687256q0 -18.359375 18.53125 -62.563118q7.15625 -16.734604 10.59375 -32.562843q1.34375 -6.125046 1.34375 -9.781296q0 -3.65625 -0.296875 -5.7499886q-0.75 -6.562477 -4.921875 -9.109215q-7.46875 -4.031004 -16.734375 -4.0307007q-9.703125 3.1852722E-4 -20.453125 4.7819214q-10.75 4.781601 -20.234375 11.656914q-9.484375 6.859688 -17.25 16.344315q-7.765625 9.484631 -11.578125 19.859753q-3.796875 10.37513 -3.796875 18.75013q0 3.421875 0.59375 6.562477q2.390625 10.296799 8.953125 15.37471q6.578125 5.0779037 15.53125 5.077614q12.546875 -4.119873E-4 23.515625 -11.047646q10.984375 -11.047234 10.984375 -23.437859q0 -6.71875 -2.6875 -9.703041q-2.6875 -2.9999084 -5.53125 -2.999817q-2.828125 9.1552734E-5 -5.671875 0.8283081q-2.828125 0.8125992 -2.828125 -0.15615082q0 -0.96875 3.421875 -2.5313644q3.4375 -1.5782394 7.171875 -1.5783615q3.734375 -1.2207031E-4 6.875 2.249771q5.8125 4.4841843 5.8125 13.593559q0 9.109375 -6.9375 18.297104q-6.9375 9.172104 -17.09375 14.781815q-10.15625 5.594078 -20.09375 5.5944138q-9.921875 3.2043457E-4 -18.4375 -7.23378q-8.515625 -7.2497177 -11.34375 -19.499626q-0.75 -3.578102 -0.75 -7.609352q0 -9.40625 4.625 -20.45327q4.640625 -11.062653 13.375 -20.547318q8.734375 -9.484661 18.875 -15.828743q10.15625 -6.3440857 21.515625 -10.531958q11.34375 -4.328497 21.34375 -4.328825q10.015625 -3.2806396E-4 18.21875 3.140028q14.484375 6.26515 14.484375 26.57765q0 14.9375 -10.75 37.0316q-6.71875 13.750221 -11.9375 29.578514q-7.765625 23.43776 -7.765625 32.547134q0 6.875 4.625 6.8748474q9.265625 -3.0517578E-4 32.40625 -24.047943q16.28125 -16.875526 25.53125 -37.03208q5.96875 -12.843948 5.96875 -23.593948q0 -5.671875 -0.890625 -7.9843445q-0.890625 -2.3280945 -1.1875 -2.9999619q-0.296875 -0.6718674 -1.203125 -1.1874619q-0.890625 -0.5312195 -1.1875 -0.53121185q-2.09375 -0.5936775 -4.34375 -0.96860504q-2.234375 -0.37492752 -2.609375 -2.0155373q-0.375 -1.6406136 1.578125 -1.9375534l2.828125 0.29678345q6.875 1.9372749 11.953125 9.702732q2.828125 4.3436584 2.828125 10.390533q0 6.046875 -2.828125 14.250092q-6.875 18.218979 -21.21875 35.922577q-14.328125 17.687958 -28.296875 27.094666q-13.953125 9.406708 -22.765625 9.406998zm137.07947 -70.33262l-15.984375 -0.14009857q-19.703125 6.4849854E-4 -30.75 9.547882q-13.0 11.047302 -13.0 25.687927q0 6.875 3.203125 12.624893q3.21875 5.749893 11.5 9.468369q8.296875 3.7341156 22.40625 3.7336426q14.109375 -4.5776367E-4 29.78125 -5.9697266q15.6875 -5.9692535 26.4375 -14.328995q12.25 -9.562897 12.25 -16.734772q0 -3.4375 -3.59375 -4.249878q-3.578125 -0.82801056 -3.71875 -1.8748779q-0.296875 -1.3437424 2.234375 -1.1875763q2.546875 0.15616608 4.1875 1.0467377q6.71875 3.5779037 6.71875 9.249779q0 8.375008 -11.578125 17.484749q-11.578125 9.109756 -29.203125 14.485336q-17.609375 5.37558 -33.0 5.3760834q-15.375 5.0354004E-4 -24.921875 -2.999176q-16.875 -5.2182007 -21.953125 -19.249283q-1.34375 -3.5937042 -1.34375 -6.874954q0 -3.28125 1.1875 -8.125038q1.203125 -4.859421 5.375 -11.125175q4.1875 -6.2813873 12.09375 -11.656647q7.921875 -5.375267 16.953125 -7.984932q9.03125 -2.6252975 16.203125 -2.922409q-7.46875 -2.6872559 -12.703125 -7.4683304q-5.21875 -4.781082 -5.21875 -10.296707q0 -0.453125 0 -0.90625q1.046875 -12.093784 13.59375 -21.719196q12.546875 -9.641037 26.28125 -13.297737q13.734375 -3.6567001 23.734375 -3.6570282q3.140625 -1.02996826E-4 6.125 0.29667282q12.390625 1.4995956 17.765625 6.2025414q5.390625 4.7029495 5.390625 9.4842q0 6.71875 -7.703125 12.922127q-7.6875 6.1877556 -18.578125 8.578739q-2.6875 0.5938339 -4.40625 0.5938873q-1.71875 6.1035156E-5 -1.578125 -0.8905716q0.609375 -1.7968903 5.078125 -2.3126678q4.484375 -0.53139496 8.671875 -3.5159073q8.359375 -6.1252747 9.546875 -15.828438q0 -0.453125 0 -0.890625q0 -3.734375 -3.578125 -6.8748817q-4.484375 -4.171726 -15.09375 -4.171379q-10.59375 3.4713745E-4 -21.953125 3.360096q-11.34375 3.359745 -20.890625 11.125683q-11.359375 9.250374 -11.359375 20.15662q0 4.328125 2.609375 7.921791q2.625 3.578041 7.625 5.296623q5.0 1.7029648 10.078125 2.905922q11.5 2.3902512 11.5 6.265251q0 3.4375 -6.421875 3.437706z" fill-rule="nonzero"/></g></svg>